# xmcd
#
# Track frame offsets:
#	150
#	11633
#	23990
#	36644
#	47910
#	68209
#	76937
#	86672
#	102574
#	116115
#	126892
#	141362
#	153692
#	167443
#	181154
#	192678
#	209734
#
# Disc length: 3090 seconds
#
# Revision: 3
# Processed by: cddbd v1.5.2PL0 Copyright (c) Steve Scherf et al.
# Submitted via: EZCDAudioConverter 2.1.7.1
#
DISCID=010c1011
DTITLE=V/A - Home Schooled: The ABCs Of Kid Soul
DYEAR=2007
DGENRE=Soul
TTITLE0=Patrizia and Jimmy - Trust Your Child (Part 1)
TTITLE1=Promise - I'm Not Ready For Love
TTITLE2=Eight Minutes - Here's Some Dances
TTITLE3=Jack and The Mods - One Is Enough For One
TTITLE4=Little Murray and The Mantics - Don't Leave Me Mama
TTITLE5=3 Simmons - You Are My Dream (School Time)
TTITLE6=3 Stars - Jersey Slide (Part 1)
TTITLE7=Cindy and The Playmates - Now That School Is Through
TTITLE8=Man Child Singers - Right On
TTITLE9=Altyrone Deno Brown - Sweet Pea
TTITLE10=The Atons - Yellow Ribbon
TTITLE11=The Triads - If You're Looking For Love
TTITLE12=The Quantrells - Can't Let You Break My Heart
TTITLE13=Jr. and His Soulettes - 2009 Cherry Soul Sound
TTITLE14=Michael Washington - Little Girl
TTITLE15=Otis The 3rd - Time
TTITLE16=Step By Step - Time After Time
EXTD=
EXTT0=
EXTT1=
EXTT2=
EXTT3=
EXTT4=
EXTT5=
EXTT6=
EXTT7=
EXTT8=
EXTT9=
EXTT10=
EXTT11=
EXTT12=
EXTT13=
EXTT14=
EXTT15=
EXTT16=
PLAYORDER=
